<svg id="svg" version="1.1" width="400" height="327.0976616231087" viewBox="0 0 400 327.0976616231087" xmlns="http://www.w3.org/2000/svg" xmlns:xlink="http://www.w3.org/1999/xlink" ><g id="svgg"><path id="path0" d="M325.722 48.862 C 289.750 53.209,266.325 84.884,273.356 119.670 C 282.587 165.340,339.468 182.437,372.657 149.519 C 406.684 115.769,388.464 57.958,341.128 49.480 C 338.073 48.932,328.362 48.543,325.722 48.862 M267.501 107.703 C 267.501 109.216,267.548 109.800,267.603 109.000 C 267.659 108.201,267.659 106.963,267.602 106.249 C 267.546 105.536,267.500 106.190,267.501 107.703 M271.934 156.052 L 269.464 158.597 272.008 156.127 C 273.408 154.768,274.553 153.623,274.553 153.582 C 274.553 153.382,274.228 153.689,271.934 156.052 M259.972 168.226 C 258.845 169.360,257.985 170.289,258.061 170.289 C 258.136 170.289,259.120 169.360,260.248 168.226 C 261.375 167.091,262.235 166.162,262.160 166.162 C 262.084 166.162,261.100 167.091,259.972 168.226 M250.336 178.198 L 248.556 180.055 250.413 178.275 C 251.434 177.296,252.270 176.460,252.270 176.418 C 252.270 176.215,251.989 176.473,250.336 178.198 M241.119 187.689 L 239.477 189.409 241.197 187.767 C 242.142 186.863,242.916 186.090,242.916 186.047 C 242.916 185.844,242.645 186.092,241.119 187.689 " stroke="none" fill="#dfd904" fill-rule="evenodd"></path><path id="path1" d="M57.251 10.493 C 16.833 14.718,-2.409 62.544,23.761 93.733 C 53.934 129.692,112.930 107.993,112.930 60.935 C 112.930 30.640,87.232 7.359,57.251 10.493 " stroke="none" fill="#0412de" fill-rule="evenodd"></path><path id="path2" d="M56.151 6.073 C 19.733 10.171,-2.400 47.938,11.521 82.228 C 22.915 110.294,56.505 123.725,84.574 111.438 C 86.265 110.697,82.982 106.276,108.459 143.604 C 120.490 161.231,133.184 179.800,136.667 184.868 L 142.999 194.084 139.656 197.387 C 110.428 226.273,110.223 274.113,139.202 303.173 C 168.234 332.285,216.173 332.139,245.038 302.851 C 270.549 276.966,273.527 236.196,252.081 206.421 C 250.951 204.851,250.066 203.459,250.116 203.327 C 250.265 202.932,293.067 159.010,293.303 159.010 C 293.423 159.010,294.855 159.890,296.485 160.966 C 316.815 174.385,345.249 174.290,365.887 160.735 C 406.821 133.849,403.058 72.059,359.182 50.616 C 325.467 34.140,284.448 50.261,271.676 85.007 C 271.092 86.596,270.528 87.995,270.423 88.117 C 270.318 88.238,261.703 86.850,251.278 85.032 C 232.829 81.814,146.811 66.891,127.511 63.560 C 122.216 62.646,117.790 61.898,117.676 61.898 C 117.562 61.898,117.465 60.939,117.460 59.766 C 117.332 27.813,88.369 2.448,56.151 6.073 M67.165 10.467 C 99.168 13.704,120.198 44.938,110.983 75.546 C 101.570 106.812,65.584 121.096,37.139 104.857 C 14.348 91.846,5.390 63.194,16.617 39.220 C 25.544 20.158,46.292 8.356,67.165 10.467 M339.188 49.143 C 378.748 54.292,401.786 97.514,384.185 133.563 C 364.165 174.567,306.856 178.233,281.781 140.114 C 253.975 97.843,288.843 42.589,339.188 49.143 M116.851 79.062 C 118.257 79.286,119.190 79.450,120.083 79.631 C 120.982 79.813,121.798 79.955,123.178 80.167 C 124.462 80.364,125.464 80.539,126.410 80.731 C 127.236 80.899,127.891 81.014,129.436 81.263 C 129.890 81.336,130.633 81.457,131.087 81.533 C 131.541 81.609,132.283 81.731,132.737 81.805 C 133.191 81.879,133.934 82.015,134.388 82.107 C 135.214 82.274,135.869 82.389,137.414 82.638 C 139.475 82.970,139.942 83.050,140.715 83.207 C 141.680 83.403,142.545 83.551,143.879 83.748 C 144.962 83.908,145.832 84.062,147.043 84.308 C 148.008 84.503,148.872 84.651,150.206 84.848 C 151.917 85.101,153.540 85.383,155.021 85.683 C 155.920 85.866,156.736 86.007,158.116 86.219 C 159.400 86.417,160.403 86.592,161.348 86.784 C 162.248 86.966,163.063 87.107,164.444 87.320 C 165.727 87.517,166.730 87.692,167.675 87.884 C 168.640 88.080,169.505 88.227,170.839 88.425 C 171.922 88.585,172.793 88.739,174.003 88.984 C 174.993 89.185,176.566 89.455,178.680 89.788 C 179.133 89.859,179.876 89.993,180.330 90.085 C 181.369 90.295,183.135 90.597,185.077 90.896 C 186.360 91.093,187.363 91.269,188.308 91.460 C 189.208 91.643,190.023 91.784,191.404 91.996 C 192.687 92.194,193.690 92.369,194.635 92.561 C 195.535 92.743,196.351 92.884,197.731 93.097 C 199.015 93.294,200.017 93.469,200.963 93.661 C 201.953 93.862,203.526 94.132,205.640 94.464 C 206.094 94.536,206.836 94.669,207.290 94.762 C 208.249 94.956,209.419 95.158,211.967 95.568 C 214.028 95.900,214.495 95.980,215.268 96.137 C 216.233 96.333,217.098 96.481,218.432 96.678 C 219.515 96.838,220.385 96.992,221.596 97.237 C 222.585 97.438,224.159 97.709,226.272 98.041 C 226.726 98.112,227.469 98.246,227.923 98.338 C 228.377 98.430,229.089 98.563,229.505 98.634 C 231.275 98.934,233.157 99.244,234.250 99.416 C 234.704 99.488,235.447 99.621,235.901 99.713 C 236.355 99.805,237.067 99.939,237.483 100.009 C 238.654 100.208,239.817 100.401,240.646 100.534 C 241.063 100.601,241.774 100.729,242.228 100.819 C 243.022 100.975,243.609 101.078,245.392 101.376 C 245.846 101.451,246.589 101.575,247.043 101.651 C 248.826 101.948,249.412 102.051,250.206 102.208 C 250.660 102.297,251.372 102.425,251.788 102.492 C 252.618 102.625,253.780 102.818,254.952 103.017 C 255.368 103.088,256.080 103.221,256.534 103.313 C 256.988 103.405,257.730 103.539,258.184 103.610 C 259.450 103.809,260.448 103.975,261.279 104.126 C 261.695 104.202,262.469 104.332,262.999 104.414 C 263.528 104.497,264.271 104.619,264.649 104.686 C 266.440 105.001,266.756 105.045,267.362 105.066 C 267.943 105.087,267.994 105.184,267.844 105.983 C 267.648 107.032,267.628 111.346,267.811 112.930 C 267.882 113.535,268.003 114.587,268.082 115.268 C 268.160 115.949,268.296 117.001,268.384 117.607 C 268.472 118.212,268.565 118.975,268.591 119.303 C 268.617 119.631,268.723 119.984,268.826 120.087 C 268.929 120.190,268.946 120.449,268.864 120.663 C 268.781 120.877,268.863 121.231,269.044 121.449 C 269.225 121.668,269.299 121.967,269.208 122.115 C 269.116 122.262,269.162 122.457,269.309 122.548 C 269.457 122.639,269.512 122.883,269.433 123.090 C 269.353 123.296,269.423 123.549,269.587 123.650 C 269.751 123.751,269.814 123.950,269.727 124.091 C 269.640 124.231,269.667 124.501,269.787 124.691 C 269.907 124.880,270.023 125.127,270.044 125.241 C 270.065 125.354,270.112 125.540,270.149 125.653 C 270.185 125.767,270.235 125.983,270.260 126.135 C 270.435 127.213,270.784 128.198,270.990 128.198 C 271.124 128.198,271.163 128.384,271.076 128.611 C 270.989 128.838,271.062 129.023,271.239 129.023 C 271.415 129.023,271.488 129.139,271.400 129.281 C 271.220 129.572,272.583 133.150,272.873 133.150 C 272.976 133.150,273.080 133.405,273.103 133.716 C 273.153 134.386,275.815 139.492,276.321 139.890 C 276.513 140.041,276.674 140.266,276.679 140.389 C 276.694 140.815,277.686 142.470,277.862 142.361 C 277.959 142.301,278.038 142.413,278.038 142.608 C 278.038 142.804,278.615 143.774,279.321 144.763 C 280.946 147.040,281.117 146.541,277.456 150.192 C 275.724 151.919,274.356 153.411,274.416 153.508 C 274.476 153.605,273.386 154.790,271.994 156.141 L 269.464 158.597 271.802 156.111 C 273.088 154.744,271.400 156.415,268.051 159.825 C 264.702 163.235,262.006 166.099,262.059 166.191 C 262.112 166.282,259.869 168.552,257.074 171.235 C 254.279 173.919,252.049 176.207,252.119 176.320 C 252.189 176.433,250.084 178.599,247.442 181.133 C 244.799 183.668,242.694 185.833,242.764 185.946 C 242.833 186.058,242.122 186.883,241.184 187.779 L 239.477 189.409 240.990 187.738 C 241.823 186.820,241.375 187.237,239.996 188.667 L 237.488 191.265 234.494 189.195 C 228.969 185.377,223.138 182.443,216.577 180.181 C 213.006 178.950,208.228 177.650,208.024 177.854 C 207.951 177.927,207.754 177.873,207.586 177.734 C 207.419 177.595,206.727 177.403,206.048 177.307 C 205.369 177.212,204.505 177.085,204.127 177.025 C 197.739 176.020,188.008 175.898,181.843 176.746 C 181.465 176.798,180.488 176.917,179.673 177.011 C 178.857 177.105,178.077 177.251,177.938 177.337 C 177.652 177.514,176.444 177.737,175.728 177.746 C 175.466 177.749,175.183 177.862,175.100 177.997 C 175.016 178.132,174.779 178.178,174.572 178.099 C 174.365 178.019,174.118 178.081,174.022 178.236 C 173.926 178.391,173.678 178.453,173.472 178.374 C 173.265 178.294,173.017 178.356,172.921 178.511 C 172.826 178.666,172.578 178.728,172.371 178.649 C 172.164 178.569,171.917 178.631,171.821 178.786 C 171.725 178.941,171.465 178.998,171.243 178.913 C 171.021 178.828,170.839 178.903,170.839 179.079 C 170.839 179.255,170.732 179.334,170.602 179.253 C 170.282 179.055,164.512 181.003,164.512 181.309 C 164.512 181.442,164.342 181.486,164.135 181.406 C 163.927 181.326,163.584 181.423,163.371 181.621 C 163.159 181.819,162.803 182.017,162.579 182.060 C 161.750 182.223,157.634 184.167,157.634 184.396 C 157.634 184.527,157.417 184.417,157.153 184.152 C 156.888 183.887,156.671 183.564,156.671 183.435 C 156.671 183.305,156.486 183.081,156.259 182.938 C 156.032 182.794,155.970 182.672,156.121 182.667 C 156.272 182.661,156.087 182.401,155.708 182.088 C 155.330 181.776,155.206 181.602,155.433 181.703 C 155.660 181.803,155.573 181.643,155.239 181.348 C 154.905 181.053,154.706 180.737,154.797 180.646 C 154.887 180.555,154.759 180.403,154.511 180.308 C 154.264 180.213,154.130 180.023,154.214 179.887 C 154.299 179.750,154.175 179.564,153.939 179.474 C 153.704 179.384,153.580 179.198,153.664 179.061 C 153.749 178.925,153.625 178.739,153.389 178.649 C 153.153 178.558,153.021 178.386,153.095 178.266 C 153.170 178.146,152.876 177.668,152.442 177.204 C 152.009 176.740,151.718 176.297,151.795 176.220 C 151.872 176.142,151.733 176.001,151.485 175.906 C 151.237 175.811,151.104 175.622,151.188 175.485 C 151.273 175.349,151.149 175.163,150.913 175.072 C 150.677 174.982,150.548 174.805,150.626 174.679 C 150.704 174.552,150.549 174.322,150.281 174.166 C 150.013 174.010,149.892 173.878,150.013 173.874 C 150.334 173.861,148.580 171.389,148.251 171.389 C 148.098 171.389,148.050 171.265,148.144 171.112 C 148.238 170.960,148.123 170.761,147.887 170.671 C 147.651 170.580,147.527 170.395,147.612 170.258 C 147.696 170.122,147.572 169.936,147.337 169.845 C 147.101 169.755,146.972 169.578,147.050 169.452 C 147.128 169.325,146.973 169.095,146.705 168.939 C 146.437 168.783,146.316 168.651,146.437 168.647 C 146.757 168.634,145.004 166.162,144.675 166.162 C 144.522 166.162,144.474 166.038,144.568 165.885 C 144.662 165.733,144.546 165.534,144.311 165.444 C 144.075 165.353,143.946 165.176,144.024 165.050 C 144.102 164.924,143.946 164.693,143.678 164.537 C 143.410 164.381,143.289 164.250,143.408 164.245 C 143.728 164.233,141.431 160.935,141.101 160.935 C 140.947 160.935,140.897 160.811,140.992 160.658 C 141.086 160.506,140.970 160.307,140.734 160.217 C 140.499 160.126,140.370 159.949,140.448 159.823 C 140.525 159.697,140.370 159.466,140.102 159.310 C 139.834 159.154,139.712 159.023,139.831 159.018 C 140.152 159.006,137.854 155.708,137.525 155.708 C 137.370 155.708,137.321 155.584,137.415 155.431 C 137.509 155.279,137.394 155.080,137.158 154.990 C 136.922 154.899,136.793 154.722,136.871 154.596 C 136.949 154.470,136.794 154.239,136.526 154.083 C 136.258 153.927,136.136 153.796,136.255 153.791 C 136.576 153.779,134.278 150.481,133.949 150.481 C 133.794 150.481,133.745 150.357,133.839 150.204 C 133.933 150.052,133.817 149.853,133.582 149.763 C 133.346 149.672,133.217 149.495,133.295 149.369 C 133.373 149.243,133.257 149.039,133.038 148.916 C 132.818 148.794,132.638 148.595,132.637 148.476 C 132.634 147.989,131.090 145.855,130.849 146.004 C 130.706 146.093,130.677 146.023,130.784 145.849 C 130.891 145.676,130.669 145.225,130.289 144.844 C 129.909 144.465,129.686 144.150,129.792 144.145 C 129.899 144.140,129.746 143.955,129.452 143.733 C 129.159 143.511,129.035 143.325,129.177 143.320 C 129.320 143.315,129.196 143.129,128.902 142.907 C 128.608 142.685,128.458 142.503,128.568 142.503 C 128.679 142.503,128.264 141.761,127.648 140.853 C 127.031 139.945,126.400 139.202,126.246 139.202 C 126.091 139.202,126.042 139.078,126.136 138.925 C 126.230 138.773,126.114 138.574,125.879 138.484 C 125.643 138.393,125.514 138.216,125.592 138.090 C 125.670 137.964,125.514 137.733,125.247 137.577 C 124.979 137.421,124.857 137.289,124.976 137.285 C 125.296 137.272,122.999 133.975,122.670 133.975 C 122.515 133.975,122.460 133.859,122.548 133.717 C 122.636 133.575,122.488 133.336,122.220 133.186 C 121.952 133.036,121.783 132.830,121.843 132.728 C 121.930 132.581,108.674 113.132,101.736 103.229 L 100.336 101.231 101.822 99.652 C 105.211 96.053,109.281 90.804,109.539 89.700 C 109.588 89.489,109.850 89.085,110.120 88.802 C 110.390 88.520,110.538 88.169,110.448 88.023 C 110.358 87.877,110.392 87.758,110.525 87.758 C 110.861 87.758,111.996 85.678,111.778 85.460 C 111.680 85.362,111.752 85.282,111.937 85.282 C 112.123 85.282,112.205 85.169,112.119 85.030 C 112.034 84.892,112.094 84.735,112.253 84.682 C 112.412 84.629,112.562 84.309,112.588 83.971 C 112.613 83.633,112.752 83.356,112.897 83.356 C 113.041 83.356,113.082 83.280,112.989 83.186 C 112.895 83.092,113.005 82.829,113.234 82.600 C 113.462 82.372,113.584 82.015,113.505 81.808 C 113.425 81.600,113.460 81.431,113.583 81.431 C 113.798 81.431,114.585 79.276,114.502 78.914 C 114.462 78.739,115.059 78.777,116.851 79.062 M259.965 168.019 L 258.184 169.876 260.041 168.096 C 261.063 167.117,261.898 166.281,261.898 166.239 C 261.898 166.037,261.618 166.294,259.965 168.019 M250.198 178.061 L 248.556 179.780 250.275 178.138 C 251.221 177.235,251.994 176.461,251.994 176.419 C 251.994 176.215,251.723 176.463,250.198 178.061 M199.667 181.033 C 251.842 186.699,279.555 246.541,250.048 289.821 C 218.399 336.243,147.878 328.634,126.989 276.545 C 109.755 233.569,138.888 185.671,185.144 180.930 C 187.414 180.697,197.216 180.767,199.667 181.033 " stroke="none" fill="#040404" fill-rule="evenodd"></path><path id="path3" d="M330.605 48.612 C 330.946 48.678,331.503 48.678,331.843 48.612 C 332.184 48.547,331.905 48.493,331.224 48.493 C 330.543 48.493,330.265 48.547,330.605 48.612 M372.765 65.887 C 373.587 66.719,374.321 67.400,374.397 67.400 C 374.472 67.400,373.862 66.719,373.040 65.887 C 372.218 65.055,371.484 64.374,371.408 64.374 C 371.332 64.374,371.943 65.055,372.765 65.887 M185.144 180.930 C 126.556 186.935,100.974 258.444,142.517 300.087 C 180.704 338.366,246.382 320.431,259.847 268.048 C 271.902 221.153,233.188 176.005,185.144 180.930 " stroke="none" fill="#db0404" fill-rule="evenodd"></path></g></svg>